<svg width="245" height="138" viewBox="0 0 245 138" fill="none" xmlns="http://www.w3.org/2000/svg">
<g clip-path="url(#clip0)">
<rect width="245" height="138" fill="white"/>
<rect x="0.5" y="0.5" width="244" height="137" stroke="#1390E5"/>
<path fill-rule="evenodd" clip-rule="evenodd" d="M-0.245361 0.435652L81.4213 46.4357L96.4984 54.928C96.6551 54.6335 96.8166 54.3418 96.9828 54.0532L81.9121 45.5644L0.245406 -0.435638L-0.245361 0.435652ZM148.769 53.6298C148.94 53.9157 149.106 54.2047 149.268 54.4966L163.579 46.4357L245.245 0.435652L244.755 -0.435638L163.088 45.5644L148.769 53.6298ZM149.268 83.5034C149.106 83.7953 148.94 84.0843 148.769 84.3702L163.088 92.4357L244.755 138.436L245.245 137.564L163.579 91.5644L149.268 83.5034ZM96.9828 83.9468C96.8166 83.6582 96.6551 83.3665 96.4984 83.072L81.4213 91.5644L-0.245361 137.564L0.245406 138.436L81.9121 92.4357L96.9828 83.9468Z" fill="#1390E5" fill-opacity="0.2"/>
<mask id="mask0" mask-type="alpha" maskUnits="userSpaceOnUse" x="103" y="49" width="40" height="40">
<circle cx="123" cy="69" r="20" fill="#C4C4C4"/>
</mask>
<g mask="url(#mask0)">
<path d="M113.5 75.5C113.5 76.6046 114.395 77.5 115.5 77.5H117.5V60.5H115.5C114.395 60.5 113.5 61.3954 113.5 62.5V75.5Z" fill="#1390E5" fill-opacity="0.2"/>
<path d="M132.5 62.5C132.5 61.3954 131.605 60.5 130.5 60.5H128.5V77.5H130.5C131.605 77.5 132.5 76.6046 132.5 75.5V62.5Z" fill="#1390E5" fill-opacity="0.2"/>
<path fill-rule="evenodd" clip-rule="evenodd" d="M115.5 61C114.672 61 114 61.6716 114 62.5V64H117V61H115.5ZM118 61V68.5H128V61H118ZM129 61V64H132V62.5C132 61.6716 131.328 61 130.5 61H129ZM132 65H129V68.5H132V65ZM132 69.5H129V73H132V69.5ZM132 74H129V77H130.5C131.328 77 132 76.3284 132 75.5V74ZM128 77V69.5H118V77H128ZM117 77V74H114V75.5C114 76.3284 114.672 77 115.5 77H117ZM114 73H117V69.5H114V73ZM114 68.5H117V65H114V68.5ZM113 62.5C113 61.1193 114.119 60 115.5 60H130.5C131.881 60 133 61.1193 133 62.5V75.5C133 76.8807 131.881 78 130.5 78H115.5C114.119 78 113 76.8807 113 75.5V62.5Z" fill="#1390E5"/>
</g>
</g>
<defs>
<clipPath id="clip0">
<rect width="245" height="138" fill="white"/>
</clipPath>
</defs>
</svg>
